<?xml version="1.0" encoding="UTF-8"?>
<!DOCTYPE svg PUBLIC "-//W3C//DTD SVG 1.1//EN" "http://www.w3.org/Graphics/SVG/1.1/DTD/svg11.dtd">
<svg version="1.1" xmlns="http://www.w3.org/2000/svg" xmlns:xlink="http://www.w3.org/1999/xlink" x="0" y="0" width="1224" height="792" viewBox="0, 0, 1224, 792">
  <g id="Layer_1">
    <path d="M155.725,213.225 L155.742,213.247 L156.449,213.247 L156.449,214.148 L264.804,352.345 L264.804,317.726 L374.164,457.205 L374.164,531.083 L264.804,531.083 L264.804,529.586 L156.449,391.388 L156.449,531.075 L47.089,531.075 L47.089,213.247 L155.697,213.247 L155.725,213.225 z" fill="#40AB00"/>
    <path d="M374.164,213.255 L374.164,213.495 L483.055,352.375 L483.055,213.285 L592.415,213.285 L592.415,247.596 C554.829,276.959 535.012,325.353 533.789,372.36 C534.062,419.522 555.584,468.094 592.404,497.64 L592.415,531.113 L483.055,531.113 L483.055,529.616 L374.164,390.736 L374.164,424.487 L264.804,285.008 L264.804,213.255 L374.164,213.255 z" fill="#FFDF00"/>
    <path d="M724.421,213.528 C779.084,217.807 815.172,236.083 848.209,279.449 C830.827,303.136 826.022,332.178 823.014,361.032 L776.351,361.032 C770.748,330.992 746.33,312.967 716.654,311.469 C682.916,311.469 655.565,338.819 655.565,372.558 C655.565,406.297 682.916,433.647 716.654,433.647 C725.18,433.106 734.467,432.087 742.087,427.825 L710.567,427.825 L710.567,385.84 L775.975,385.84 L776.069,385.467 L823.2,385.467 C826.622,429.08 848.612,476.947 882.504,504.143 L882.844,531.465 L776.984,531.465 L776.984,519.36 C757.758,527.382 737.067,530.521 716.386,531.465 C626.018,531.465 552.759,460.231 552.759,372.36 C554.074,280.988 627.068,215.451 716.386,213.255 L724.421,213.528 z" fill="#40AB01"/>
    <path d="M1005.755,213.255 C1092.051,214.302 1159.905,275.295 1168.842,361.032 L1065.72,361.032 C1060.117,330.992 1035.699,312.967 1006.023,311.469 C972.284,311.469 944.934,338.819 944.933,372.558 C944.934,406.297 972.284,433.647 1006.023,433.647 C1034.514,433.133 1059.682,413.69 1065.437,385.467 L1168.656,385.467 C1160.717,471.162 1089.855,529.395 1005.755,531.465 C915.386,531.465 842.128,460.231 842.128,372.36 C842.128,284.489 915.386,213.255 1005.755,213.255 z" fill="#40AB01"/>
  </g>
</svg>
